<svg xmlns="http://www.w3.org/2000/svg" xmlns:xlink="http://www.w3.org/1999/xlink" viewBox="0 0 102.74 15.33"><defs><style>.cls-1{fill:#fff;}.cls-2{fill:url(#linear-gradient);}.cls-3{fill:url(#linear-gradient-2);}.cls-4{fill:url(#linear-gradient-3);}.cls-5{fill:url(#linear-gradient-4);}</style><linearGradient id="linear-gradient" x1="129.58" y1="-128.43" x2="132.3" y2="-128.03" gradientTransform="translate(-33.37 187.4) rotate(-33.92)" gradientUnits="userSpaceOnUse"><stop offset="0" stop-color="#f2f2f2"/><stop offset="0.26" stop-color="#eee"/><stop offset="0.54" stop-color="#e1e1e1"/><stop offset="0.8" stop-color="#cecece"/><stop offset="1" stop-color="#b3b3b3"/></linearGradient><linearGradient id="linear-gradient-2" x1="460.93" y1="-128.42" x2="463.8" y2="-128.26" gradientTransform="matrix(-0.83, 0.56, 0.56, 0.83, 460.91, -144.99)" xlink:href="#linear-gradient"/><linearGradient id="linear-gradient-3" x1="7.86" y1="20.88" x2="-4.27" y2="-0.14" gradientUnits="userSpaceOnUse"><stop offset="0" stop-color="#0d0158"/><stop offset="0.05" stop-color="#1a216f"/><stop offset="0.13" stop-color="#2d4f90"/><stop offset="0.22" stop-color="#3e78ad"/><stop offset="0.31" stop-color="#4c9bc6"/><stop offset="0.41" stop-color="#58b7da"/><stop offset="0.51" stop-color="#61cdea"/><stop offset="0.63" stop-color="#67dcf5"/><stop offset="0.76" stop-color="#6be5fb"/><stop offset="0.95" stop-color="#6ce8fd"/></linearGradient><linearGradient id="linear-gradient-4" x1="15.21" y1="12.8" x2="1.33" y2="-3.74" gradientUnits="userSpaceOnUse"><stop offset="0" stop-color="#ff005e"/><stop offset="0.17" stop-color="#ff204f"/><stop offset="0.56" stop-color="#ff712a"/><stop offset="0.95" stop-color="#ffca01"/></linearGradient></defs><g id="Layer_2" data-name="Layer 2"><g id="Layer_1-2" data-name="Layer 1"><path class="cls-1" d="M20.67,11a2.81,2.81,0,0,1-.53,1.88,1.92,1.92,0,0,1-1.53.6c-1.37,0-2.05-.83-2.05-2.48V5.94H14.42v5.17a4.22,4.22,0,0,0,1.1,3.12,4.19,4.19,0,0,0,3.08,1.1,4.19,4.19,0,0,0,3.08-1.1,4.22,4.22,0,0,0,1.1-3.12V5.94H20.67Z"/><path class="cls-1" d="M29.08,8a3.1,3.1,0,0,1,1.53-.38,3,3,0,0,1,2.32,1.08L34.3,7.42a4.28,4.28,0,0,0-1.63-1.21,5.64,5.64,0,0,0-4.73.19,4.53,4.53,0,0,0-1.8,1.7,4.7,4.7,0,0,0-.65,2.45A4.71,4.71,0,0,0,26.14,13a4.6,4.6,0,0,0,1.8,1.7,5.29,5.29,0,0,0,2.55.62,5.42,5.42,0,0,0,2.17-.43,4.33,4.33,0,0,0,1.64-1.22l-1.37-1.27a3,3,0,0,1-2.32,1.1,3.1,3.1,0,0,1-1.53-.38,2.65,2.65,0,0,1-1-1.05A3.25,3.25,0,0,1,28,9,2.65,2.65,0,0,1,29.08,8Z"/><polygon class="cls-1" points="45.5 5.94 43.13 5.94 39.04 10.25 39.04 5.94 36.92 5.94 36.92 15.17 39.04 15.17 39.04 12.84 40.28 11.54 43.23 15.17 45.72 15.17 41.68 10.05 45.5 5.94"/><path class="cls-1" d="M54.63,10.37a2.2,2.2,0,0,0,1.23-2A2,2,0,0,0,55,6.59a4.42,4.42,0,0,0-2.59-.65H47.86v9.23h4.77a4.88,4.88,0,0,0,2.75-.65,2.14,2.14,0,0,0,.94-1.87,2.29,2.29,0,0,0-.45-1.44A2.46,2.46,0,0,0,54.63,10.37ZM50,7.55H52.1a2.18,2.18,0,0,1,1.2.27.89.89,0,0,1,.41.81.92.92,0,0,1-.41.82,2.18,2.18,0,0,1-1.2.27H50Zm3.76,5.73a2.3,2.3,0,0,1-1.27.28H50V11.28h2.49c1.14,0,1.7.38,1.7,1.15A.93.93,0,0,1,53.74,13.28Z"/><path class="cls-1" d="M66.18,6.4A5.7,5.7,0,0,0,61,6.4a4.71,4.71,0,0,0,0,8.31,5.7,5.7,0,0,0,5.17,0A4.7,4.7,0,0,0,68,13a4.64,4.64,0,0,0,.66-2.45A4.63,4.63,0,0,0,68,8.11,4.7,4.7,0,0,0,66.18,6.4Zm-.07,5.68a2.69,2.69,0,0,1-1,1.05,3.05,3.05,0,0,1-2.95,0,2.67,2.67,0,0,1-1-1.05,3,3,0,0,1-.38-1.53A2.93,2.93,0,0,1,61.09,9a2.67,2.67,0,0,1,1-1,3.05,3.05,0,0,1,2.95,0,2.69,2.69,0,0,1,1,1,3,3,0,0,1,.37,1.52A3,3,0,0,1,66.11,12.08Z"/><path class="cls-1" d="M74.21,5.94l-4.12,9.23h2.19l.82-2h4.28l.82,2h2.24L76.32,5.94Zm-.42,5.63L75.25,8l1.46,3.53Z"/><path class="cls-1" d="M90.1,11.06a3.17,3.17,0,0,0,.49-1.77,3.06,3.06,0,0,0-1.88-2.94,5.15,5.15,0,0,0-2.13-.41h-4v9.23h2.13V12.6h2l1.78,2.57h2.29l-2.07-3A3.09,3.09,0,0,0,90.1,11.06Zm-2.17-.58a2.24,2.24,0,0,1-1.47.42H84.72V7.68h1.74a2.24,2.24,0,0,1,1.47.42,1.46,1.46,0,0,1,.5,1.19A1.5,1.5,0,0,1,87.93,10.48Z"/><path class="cls-1" d="M102.1,8.13a4.25,4.25,0,0,0-1.79-1.61,5.79,5.79,0,0,0-2.66-.58H93.46v9.23h4.19a5.79,5.79,0,0,0,2.66-.58A4.25,4.25,0,0,0,102.1,13a4.5,4.5,0,0,0,.64-2.43A4.49,4.49,0,0,0,102.1,8.13Zm-2.34,4.51a3.09,3.09,0,0,1-2.21.78h-2V7.69h2a3.09,3.09,0,0,1,2.21.78,2.7,2.7,0,0,1,.82,2.08A2.71,2.71,0,0,1,99.76,12.64Z"/><polygon class="cls-2" points="4.42 12.5 2.34 3.68 5.91 9.27 4.42 12.5"/><polygon class="cls-3" points="9.33 9.03 2.34 3.68 5.91 9.27 9.33 9.03"/><polyline class="cls-4" points="0 14.93 0 0 2.49 3.9 5.68 14.93"/><path class="cls-5" d="M6.2,0s6.24-.21,6.24,5.16A6.55,6.55,0,0,1,10,10l-7.46-6L0,0"/></g></g></svg>