<svg width="24" height="24" viewBox="0 0 24 24" fill="none" xmlns="http://www.w3.org/2000/svg">
<path fill-rule="evenodd" clip-rule="evenodd" d="M13.0921 3.64286C12.6067 2.78571 11.3933 2.78571 10.9079 3.64286L2.17083 19.0714C1.68544 19.9286 2.29218 21 3.26296 21H20.737C21.7078 21 22.3146 19.9286 21.8292 19.0714L13.0921 3.64286ZM12 15.8571C11.3035 15.8571 10.7389 15.2815 10.7389 14.5714V9.42857C10.7389 8.71849 11.3035 8.14286 12 8.14286C12.6965 8.14286 13.2611 8.71849 13.2611 9.42857V14.5714C13.2611 15.2815 12.6965 15.8571 12 15.8571ZM13.2611 18.4286C13.2611 19.1387 12.6965 19.7143 12 19.7143C11.3035 19.7143 10.7389 19.1387 10.7389 18.4286C10.7389 17.7185 11.3035 17.1429 12 17.1429C12.6965 17.1429 13.2611 17.7185 13.2611 18.4286Z" fill="black"/>
</svg>
