<svg width="24" height="24" viewBox="0 0 24 24" fill="none" xmlns="http://www.w3.org/2000/svg">
<circle cx="12" cy="12" r="8" fill="white"/>
<path d="M12 2C6.48 2 2 6.48 2 12C2 17.52 6.48 22 12 22C17.52 22 22 17.52 22 12C22 6.48 17.52 2 12 2ZM10.7071 16.2929C10.3166 16.6834 9.68342 16.6834 9.29289 16.2929L5.70549 12.7055C5.31586 12.3159 5.31586 11.6841 5.70549 11.2945C6.09474 10.9053 6.7257 10.9048 7.11549 11.2935L10 14.17L16.8804 7.28961C17.2719 6.89811 17.9074 6.89963 18.2975 7.29251C18.6857 7.68343 18.6849 8.31506 18.2954 8.70461L10.7071 16.2929Z" fill="black"/>
</svg>
