<?xml version="1.0" encoding="UTF-8" standalone="no"?> <svg id="Layer_1" data-name="Layer 1" xmlns="http://www.w3.org/2000/svg" viewBox="0 0 24 24"><title>office, document, paper, work, file</title><path d="M20.87,0H7.13A3.14,3.14,0,0,0,4,3.13V4H0V24H20V20h.87A3.14,3.14,0,0,0,24,16.87V3.13A3.14,3.14,0,0,0,20.87,0ZM18,22H2V6H4V16.87A3.14,3.14,0,0,0,7.13,20H18Zm4-5.13A1.14,1.14,0,0,1,20.87,18H7.13A1.14,1.14,0,0,1,6,16.87V3.13A1.14,1.14,0,0,1,7.13,2H20.87A1.14,1.14,0,0,1,22,3.13Z"/><rect x="9" y="5" width="10" height="2"/><rect x="9" y="9" width="10" height="2"/><rect x="9" y="13" width="10" height="2"/></svg>