<svg id="Layer_1" data-name="Layer 1" xmlns="http://www.w3.org/2000/svg" xmlns:xlink="http://www.w3.org/1999/xlink" viewBox="0 0 117 89.84"><defs><style>.cls-1{fill:#333;}.cls-2{fill:url(#linear-gradient);}.cls-3{fill:url(#linear-gradient-2);}.cls-4{fill:url(#linear-gradient-3);}.cls-5{fill:url(#linear-gradient-4);}</style><linearGradient id="linear-gradient" x1="174.86" y1="-74.38" x2="184.72" y2="-72.97" gradientTransform="translate(-53.57 199.16) rotate(-33.92)" gradientUnits="userSpaceOnUse"><stop offset="0" stop-color="#f2f2f2"/><stop offset="0.26" stop-color="#eee"/><stop offset="0.54" stop-color="#e1e1e1"/><stop offset="0.8" stop-color="#cecece"/><stop offset="1" stop-color="#b3b3b3"/></linearGradient><linearGradient id="linear-gradient-2" x1="420.58" y1="-74.36" x2="430.95" y2="-73.8" gradientTransform="matrix(-0.83, 0.56, 0.56, 0.83, 455.93, -143.47)" xlink:href="#linear-gradient"/><linearGradient id="linear-gradient-3" x1="69.44" y1="84.54" x2="25.55" y2="8.54" gradientUnits="userSpaceOnUse"><stop offset="0" stop-color="#0d0158"/><stop offset="0.05" stop-color="#1a216f"/><stop offset="0.13" stop-color="#2d4f90"/><stop offset="0.22" stop-color="#3e78ad"/><stop offset="0.31" stop-color="#4c9bc6"/><stop offset="0.41" stop-color="#58b7da"/><stop offset="0.51" stop-color="#61cdea"/><stop offset="0.63" stop-color="#67dcf5"/><stop offset="0.76" stop-color="#6be5fb"/><stop offset="0.95" stop-color="#6ce8fd"/></linearGradient><linearGradient id="linear-gradient-4" x1="96" y1="55.33" x2="45.82" y2="-4.48" gradientUnits="userSpaceOnUse"><stop offset="0" stop-color="#ff005e"/><stop offset="0.17" stop-color="#ff204f"/><stop offset="0.56" stop-color="#ff712a"/><stop offset="0.95" stop-color="#ffca01"/></linearGradient></defs><path class="cls-1" d="M19.75,72.28a4.63,4.63,0,0,0-1.94-.38H14.18v8.4h1.94V78h1.69a4.63,4.63,0,0,0,1.94-.37A2.81,2.81,0,0,0,21,76.57a3.2,3.2,0,0,0,0-3.24A2.88,2.88,0,0,0,19.75,72.28ZM19,76a2.08,2.08,0,0,1-1.34.37H16.12V73.49H17.7a2,2,0,0,1,1.34.38A1.33,1.33,0,0,1,19.49,75,1.34,1.34,0,0,1,19,76Z"/><path class="cls-1" d="M29.5,76.54A2.57,2.57,0,0,1,29,78.25a1.76,1.76,0,0,1-1.39.54c-1.25,0-1.87-.75-1.87-2.25V71.9h-2v4.71a3.85,3.85,0,0,0,1,2.84,3.8,3.8,0,0,0,2.81,1,3.48,3.48,0,0,0,3.8-3.84V71.9H29.5Z"/><path class="cls-1" d="M37.16,73.76a2.75,2.75,0,0,1,1.39-.34,2.7,2.7,0,0,1,2.11,1l1.25-1.15a4.07,4.07,0,0,0-1.48-1.11,5,5,0,0,0-2-.38,4.86,4.86,0,0,0-2.33.56,4.12,4.12,0,0,0-1.63,1.55,4.46,4.46,0,0,0,0,4.47,4.12,4.12,0,0,0,1.63,1.55,5.15,5.15,0,0,0,4.3.17A3.82,3.82,0,0,0,41.91,79L40.66,77.8a2.68,2.68,0,0,1-2.11,1,2.75,2.75,0,0,1-1.39-.34,2.5,2.5,0,0,1-1-1,2.82,2.82,0,0,1-.34-1.4,2.78,2.78,0,0,1,.34-1.39A2.44,2.44,0,0,1,37.16,73.76Z"/><polygon class="cls-1" points="52.11 71.9 49.95 71.9 46.23 75.83 46.23 71.9 44.3 71.9 44.3 80.31 46.23 80.31 46.23 78.18 47.35 77 50.04 80.31 52.31 80.31 48.63 75.65 52.11 71.9"/><path class="cls-1" d="M60.42,75.94a2,2,0,0,0,1.12-1.85,1.86,1.86,0,0,0-.82-1.6,4.05,4.05,0,0,0-2.36-.59h-4.1v8.4H58.6a4.34,4.34,0,0,0,2.5-.59A2,2,0,0,0,62,78a2.09,2.09,0,0,0-.41-1.31A2.17,2.17,0,0,0,60.42,75.94Zm-4.23-2.57h1.93a2,2,0,0,1,1.09.24.83.83,0,0,1,.37.74.85.85,0,0,1-.37.75,2,2,0,0,1-1.09.25H56.19Zm3.42,5.22a2.11,2.11,0,0,1-1.15.25H56.19V76.76h2.27c1,0,1.54.35,1.54,1A.87.87,0,0,1,59.61,78.59Z"/><path class="cls-1" d="M70.94,72.32a5.23,5.23,0,0,0-4.71,0,4.37,4.37,0,0,0-1.65,6,4.18,4.18,0,0,0,1.65,1.55,5.15,5.15,0,0,0,4.71,0,4.34,4.34,0,0,0,1.64-6A4.32,4.32,0,0,0,70.94,72.32Zm-.07,5.18a2.52,2.52,0,0,1-.94,1,2.83,2.83,0,0,1-2.69,0,2.52,2.52,0,0,1-.94-1A2.82,2.82,0,0,1,66,76.1a2.78,2.78,0,0,1,.34-1.39,2.45,2.45,0,0,1,.94-.95,2.83,2.83,0,0,1,2.69,0,2.45,2.45,0,0,1,.94.95,2.78,2.78,0,0,1,.34,1.39A2.82,2.82,0,0,1,70.87,77.5Z"/><path class="cls-1" d="M78.24,71.9,74.5,80.3h2l.75-1.8h3.9l.74,1.8h2l-3.76-8.4ZM77.86,77l1.33-3.22L80.52,77Z"/><path class="cls-1" d="M92.71,76.57A2.85,2.85,0,0,0,93.16,75a3,3,0,0,0-.44-1.62,2.88,2.88,0,0,0-1.27-1,4.63,4.63,0,0,0-1.94-.38H85.88v8.4h1.94V78h1.79l1.62,2.34h2.09l-1.89-2.7A2.87,2.87,0,0,0,92.71,76.57Zm-2-.54a2,2,0,0,1-1.34.39H87.82V73.49H89.4a2,2,0,0,1,1.34.38,1.52,1.52,0,0,1,0,2.16Z"/><path class="cls-1" d="M103.64,73.9A3.81,3.81,0,0,0,102,72.43a5.35,5.35,0,0,0-2.42-.53H95.78v8.4h3.81a5.35,5.35,0,0,0,2.42-.52,3.94,3.94,0,0,0,1.63-1.47,4.48,4.48,0,0,0,0-4.41ZM101.51,78a2.86,2.86,0,0,1-2,.7H97.72V73.5H99.5a2.81,2.81,0,0,1,2,.7,2.79,2.79,0,0,1,0,3.81Z"/><polygon class="cls-2" points="56.97 54.27 49.45 22.37 62.38 42.55 56.97 54.27"/><polygon class="cls-3" points="74.74 41.72 49.45 22.37 62.38 42.55 74.74 41.72"/><polyline class="cls-4" points="41 63.05 41 9.04 50.01 23.14 61.53 63.05"/><path class="cls-5" d="M63.41,9.05S86,8.27,86,27.69c0,10.63-9,17.36-9,17.36L50,23.14,41,9.05"/></svg>